<svg xmlns="http://www.w3.org/2000/svg" viewBox="0 0 256 256">
  <defs>
    <linearGradient id="bg" x1="0" y1="0" x2="1" y2="1">
      <stop offset="0%" stop-color="#070b1c" />
      <stop offset="100%" stop-color="#120a2b" />
    </linearGradient>
    <filter id="glowCyan" x="-50%" y="-50%" width="200%" height="200%">
      <feGaussianBlur stdDeviation="3.2" result="blur" />
      <feMerge>
        <feMergeNode in="blur" />
        <feMergeNode in="SourceGraphic" />
      </feMerge>
    </filter>
    <filter id="glowPink" x="-50%" y="-50%" width="200%" height="200%">
      <feGaussianBlur stdDeviation="3.2" result="blur" />
      <feMerge>
        <feMergeNode in="blur" />
        <feMergeNode in="SourceGraphic" />
      </feMerge>
    </filter>
  </defs>

  <rect x="0" y="0" width="256" height="256" rx="44" fill="url(#bg)" />

  <g transform="translate(32 26)">
    <!-- N -->
    <path d="M18 188V34h28l62 102V34h24v154h-28L42 86v102z"
      fill="none" stroke="#22f5ff" stroke-width="11" stroke-linejoin="round" filter="url(#glowCyan)" />

    <!-- B -->
    <path d="M142 34h46c20 0 34 12 34 30 0 14-9 23-21 27 15 4 26 15 26 33 0 22-16 36-40 36h-45z
             M166 56v28h20c10 0 15-5 15-14 0-9-6-14-16-14z
             M166 107v36h23c12 0 18-6 18-17 0-11-7-19-20-19z"
      fill="none" stroke="#ff3d91" stroke-width="11" stroke-linejoin="round" filter="url(#glowPink)" />
  </g>
</svg>
